<svg width="96" height="128" viewBox="0 0 96 128" fill="none" xmlns="http://www.w3.org/2000/svg">
<path d="M91 11H5C2.17745 11 0 13.1688 0 16V123C0 125.831 2.17745 128 5 128H91C93.8226 128 96 125.831 96 123V16C96 13.1691 93.8226 11 91 11Z" fill="#64798A"/>
<path d="M91 18H6V123H91V18Z" fill="#EBF0F3"/>
<path d="M91 15H6V120H91V15Z" fill="white"/>
<path d="M75 11H22V15H75V11Z" fill="#3A556A"/>
<path d="M75 15H22V24H75V15Z" fill="#E1E6E9"/>
<path d="M68 8H55C54.8766 3.68621 52.2017 0 48 0C43.797 0 40.1234 3.68621 40 8H27C25.8395 8 25 8.80046 25 10V21H70V10C69.9997 8.80046 69.1605 8 68 8Z" fill="#DC8744"/>
<path d="M19 56H11V67H19V56Z" fill="#E56353"/>
<path d="M30 43H22V67H30V43Z" fill="#27A2DB"/>
<path d="M41 30H33V67H41V30Z" fill="#44C4A1"/>
<path d="M52 47H44V66H52V47Z" fill="#FCD462"/>
<path d="M19 63H11V67H19V63Z" fill="#D15241"/>
<path d="M30 63H22V67H30V63Z" fill="#2D93BA"/>
<path d="M41 63H33V67H41V63Z" fill="#3EA69B"/>
<path d="M52 63H44V67H52V63Z" fill="#F6C358"/>
<path d="M85 73H11V76H85V73Z" fill="#D5D6DB"/>
<path d="M85 33H60V36H85V33Z" fill="#D5D6DB"/>
<path d="M85 43H60V46H85V43Z" fill="#D5D6DB"/>
<path d="M85 53H60V56H85V53Z" fill="#D5D6DB"/>
<path d="M85 63H60V66H85V63Z" fill="#D5D6DB"/>
<path d="M85 83H11V86H85V83Z" fill="#D5D6DB"/>
<path d="M85 92H11V117H85V92Z" fill="#D5D6DB"/>
<path d="M85 91H11V116H85V91Z" fill="#EBF0F3"/>
<path d="M12.9992 116C12.8394 116 12.1293 116.114 11.9992 116C11.7095 115.747 11.7501 115.294 11.9992 115L21.9992 104C21.7095 103.835 22.2158 103.744 21.9992 104L32.9992 110L41.9992 99.9999C42.2186 99.7689 42.7178 99.8334 42.9992 99.9999L53.9992 106L61.9992 96.9999C62.2104 96.7606 62.7258 95.8528 62.9992 95.9999L72.9992 102L81.9992 93.9999C82.2943 93.7482 82.7529 93.7058 82.9992 93.9999C83.2483 94.2956 83.2889 94.7469 82.9992 94.9999L73.9992 103C73.7826 103.187 73.2512 103.129 72.9992 103L62.9992 97.9999L54.9992 108C54.7798 108.247 54.286 108.166 53.9992 108L42.9992 101L32.9992 111C32.7826 111.228 33.278 111.157 32.9992 111L21.9992 105L12.9992 116C13.1941 116 12.8611 116.162 12.9992 116Z" fill="#44C4A1"/>
<path d="M12.9998 116C12.7373 116 12.1163 116.26 11.9998 116C11.8401 115.646 11.6506 115.161 11.9998 115L23.9998 109C23.8184 108.923 24.1759 108.916 23.9998 109L32.9998 113L40.9998 108C40.8266 107.953 41.1568 107.915 40.9998 108L51.9998 111L62.9998 105C62.8292 104.96 63.1568 104.905 62.9998 105L74.9998 108L78.9998 106C79.314 105.783 79.7833 105.681 79.9998 106C80.2164 106.321 80.3166 106.779 79.9998 107L75.9998 109C75.8375 109.113 75.1842 109.044 74.9998 109L62.9998 106L52.9998 113C52.8375 113.098 52.1839 113.05 51.9998 113L40.9998 110L32.9998 114C32.8184 114.102 32.1922 114.081 31.9998 114L23.9998 111L12.9998 116C13.0972 116 12.9077 116.042 12.9998 116Z" fill="#E56353"/>
</svg>
